<svg width="32" height="35" viewBox="0 0 32 35" fill="none" xmlns="http://www.w3.org/2000/svg">
<path d="M26.1206 18.7161C26.1394 17.4081 26.5258 16.1256 27.244 14.9879C27.9621 13.8502 28.9886 12.8944 30.2281 12.2093C29.4407 11.1982 28.402 10.3662 27.1944 9.7792C25.9868 9.19223 24.6437 8.86651 23.2716 8.82791C20.3447 8.55168 17.5072 10.4026 16.0157 10.4026C14.4954 10.4026 12.199 8.85534 9.72621 8.90108C8.12673 8.94754 6.56791 9.36573 5.20163 10.1149C3.83536 10.8641 2.70822 11.9187 1.93004 13.176C-1.44079 18.4234 1.07355 26.1354 4.30258 30.377C5.91814 32.454 7.80625 34.7741 10.2768 34.6918C12.6945 34.6016 13.5974 33.3057 16.5156 33.3057C19.4068 33.3057 20.2539 34.6918 22.7746 34.6395C25.3689 34.6016 27.0033 32.5533 28.5622 30.4566C29.723 28.9767 30.6162 27.341 31.2088 25.6102C29.7016 25.0371 28.4155 24.0777 27.5106 22.8517C26.6058 21.6258 26.1224 20.1874 26.1206 18.7161Z" fill="white"/>
<path d="M21.3591 6.03766C22.7736 4.51095 23.4704 2.54861 23.3017 0.567383C21.1407 0.771454 19.1445 1.70007 17.711 3.16821C17.01 3.88543 16.4732 4.71983 16.1312 5.62371C15.7891 6.52758 15.6485 7.48321 15.7175 8.43596C16.7984 8.44596 17.8677 8.23532 18.8449 7.8199C19.8221 7.40447 20.6818 6.79509 21.3591 6.03766V6.03766Z" fill="white"/>
</svg>
