<svg width="419" height="56" viewBox="0 0 419 56" fill="none" xmlns="http://www.w3.org/2000/svg">
<path d="M43.6836 28.2109C43.6836 34.1875 42.5703 39.1562 40.3438 43.1172C38.1172 47.0781 34.9766 50.0547 30.9219 52.0469C26.8906 54.0156 22.1445 55 16.6836 55H0.0546875V3.60156H17.8438C23.375 3.60156 28.0625 4.55078 31.9062 6.44922C35.75 8.34766 38.668 11.125 40.6602 14.7812C42.6758 18.4375 43.6836 22.9141 43.6836 28.2109ZM29.2695 28.7031C29.2695 25.5859 28.8477 23.0078 28.0039 20.9688C27.1836 18.9062 25.9414 17.3711 24.2773 16.3633C22.6133 15.332 20.5156 14.8164 17.9844 14.8164H13.9414V43.6094H17.0352C21.2539 43.6094 24.3477 42.3906 26.3164 39.9531C28.2852 37.4922 29.2695 33.7422 29.2695 28.7031ZM90.1602 34.9961C90.1602 38.3242 89.7031 41.2773 88.7891 43.8555C87.875 46.4336 86.5508 48.6016 84.8164 50.3594C83.082 52.1172 80.9844 53.4531 78.5234 54.3672C76.0625 55.2578 73.2852 55.7031 70.1914 55.7031C67.3086 55.7031 64.6602 55.2578 62.2461 54.3672C59.8555 53.4531 57.7695 52.1172 55.9883 50.3594C54.207 48.6016 52.8242 46.4336 51.8398 43.8555C50.8789 41.2773 50.3984 38.3242 50.3984 34.9961C50.3984 30.5898 51.1953 26.8633 52.7891 23.8164C54.4062 20.7695 56.7031 18.4492 59.6797 16.8555C62.6797 15.2617 66.2539 14.4648 70.4023 14.4648C74.2227 14.4648 77.6211 15.2617 80.5977 16.8555C83.5742 18.4492 85.9062 20.7695 87.5938 23.8164C89.3047 26.8633 90.1602 30.5898 90.1602 34.9961ZM64.3555 34.9961C64.3555 37.2695 64.5547 39.1914 64.9531 40.7617C65.3516 42.3086 65.9844 43.4922 66.8516 44.3125C67.7422 45.1094 68.9023 45.5078 70.332 45.5078C71.7617 45.5078 72.8984 45.1094 73.7422 44.3125C74.5859 43.4922 75.1953 42.3086 75.5703 40.7617C75.9688 39.1914 76.168 37.2695 76.168 34.9961C76.168 32.7227 75.9688 30.8242 75.5703 29.3008C75.1953 27.7773 74.5742 26.6289 73.707 25.8555C72.8633 25.082 71.7148 24.6953 70.2617 24.6953C68.1758 24.6953 66.6641 25.5625 65.7266 27.2969C64.8125 29.0312 64.3555 31.5977 64.3555 34.9961ZM141.664 14.4648C145.766 14.4648 149.117 15.625 151.719 17.9453C154.32 20.2656 155.621 23.9805 155.621 29.0898V55H141.875V33.2734C141.875 30.625 141.488 28.6328 140.715 27.2969C139.965 25.9375 138.746 25.2578 137.059 25.2578C134.457 25.2578 132.711 26.3242 131.82 28.457C130.93 30.5664 130.484 33.6016 130.484 37.5625V55H116.738V15.168H127.109L128.973 20.4414H129.5C130.344 19.1758 131.352 18.0977 132.523 17.207C133.695 16.3164 135.043 15.6367 136.566 15.168C138.09 14.6992 139.789 14.4648 141.664 14.4648ZM230.398 44.8398C231.641 44.8398 232.777 44.7109 233.809 44.4531C234.84 44.1953 235.918 43.8672 237.043 43.4688V53.4883C235.543 54.1445 233.949 54.6719 232.262 55.0703C230.598 55.4922 228.465 55.7031 225.863 55.7031C223.285 55.7031 221.012 55.3047 219.043 54.5078C217.074 53.6875 215.539 52.2812 214.438 50.2891C213.359 48.2734 212.82 45.4727 212.82 41.8867V25.4688H208.004V19.8789L214.121 15.5547L217.672 7.1875H226.672V15.168H236.445V25.4688H226.672V40.9727C226.672 42.2617 227 43.2344 227.656 43.8906C228.312 44.5234 229.227 44.8398 230.398 44.8398ZM307.145 28.2109C307.145 34.1875 306.031 39.1562 303.805 43.1172C301.578 47.0781 298.438 50.0547 294.383 52.0469C290.352 54.0156 285.605 55 280.145 55H263.516V3.60156H281.305C286.836 3.60156 291.523 4.55078 295.367 6.44922C299.211 8.34766 302.129 11.125 304.121 14.7812C306.137 18.4375 307.145 22.9141 307.145 28.2109ZM292.73 28.7031C292.73 25.5859 292.309 23.0078 291.465 20.9688C290.645 18.9062 289.402 17.3711 287.738 16.3633C286.074 15.332 283.977 14.8164 281.445 14.8164H277.402V43.6094H280.496C284.715 43.6094 287.809 42.3906 289.777 39.9531C291.746 37.4922 292.73 33.7422 292.73 28.7031ZM333.512 14.4648C337.379 14.4648 340.719 15.1445 343.531 16.5039C346.344 17.8398 348.512 19.8555 350.035 22.5508C351.559 25.2461 352.32 28.6211 352.32 32.6758V38.793H327.746C327.863 40.8789 328.637 42.5898 330.066 43.9258C331.52 45.2617 333.652 45.9297 336.465 45.9297C338.949 45.9297 341.223 45.6836 343.285 45.1914C345.371 44.6992 347.516 43.9375 349.719 42.9062V52.7852C347.797 53.793 345.699 54.5312 343.426 55C341.152 55.4688 338.281 55.7031 334.812 55.7031C330.805 55.7031 327.219 54.9883 324.055 53.5586C320.891 52.1289 318.395 49.9141 316.566 46.9141C314.762 43.9141 313.859 40.0586 313.859 35.3477C313.859 30.5664 314.68 26.6406 316.32 23.5703C317.961 20.4766 320.258 18.1914 323.211 16.7148C326.164 15.2148 329.598 14.4648 333.512 14.4648ZM334.004 23.8164C332.387 23.8164 331.027 24.332 329.926 25.3633C328.848 26.3711 328.215 27.9648 328.027 30.1445H339.84C339.816 28.9727 339.582 27.9062 339.137 26.9453C338.691 25.9844 338.035 25.2227 337.168 24.6602C336.324 24.0977 335.27 23.8164 334.004 23.8164ZM379.531 14.4648C384.57 14.4648 388.508 15.7188 391.344 18.2266C394.18 20.7109 395.598 24.2617 395.598 28.8789V55H386.07L383.434 49.7266H383.152C382.027 51.1328 380.867 52.2812 379.672 53.1719C378.5 54.0391 377.152 54.6719 375.629 55.0703C374.105 55.4922 372.242 55.7031 370.039 55.7031C367.742 55.7031 365.68 55.2344 363.852 54.2969C362.023 53.3594 360.582 51.9414 359.527 50.043C358.473 48.1445 357.945 45.7422 357.945 42.8359C357.945 38.5703 359.422 35.4062 362.375 33.3438C365.328 31.2812 369.605 30.1211 375.207 29.8633L381.852 29.6523V29.0898C381.852 27.3086 381.406 26.043 380.516 25.293C379.648 24.543 378.477 24.168 377 24.168C375.43 24.168 373.672 24.4492 371.727 25.0117C369.805 25.5508 367.871 26.2539 365.926 27.1211L361.953 18.0508C364.25 16.8789 366.852 15.9883 369.758 15.3789C372.664 14.7695 375.922 14.4648 379.531 14.4648ZM381.922 37.2109L378.758 37.3516C376.227 37.4453 374.445 37.8906 373.414 38.6875C372.406 39.4609 371.902 40.5742 371.902 42.0273C371.902 43.3867 372.266 44.3945 372.992 45.0508C373.719 45.6836 374.68 46 375.875 46C377.539 46 378.957 45.4727 380.129 44.418C381.324 43.3633 381.922 41.9922 381.922 40.3047V37.2109ZM418.695 55H404.949V0.296875H418.695V55Z" fill="#18191F"/>
</svg>
