<svg width="430" height="98" viewBox="0 0 430 98" fill="none" xmlns="http://www.w3.org/2000/svg">
<path d="M49.6836 50.2109C49.6836 56.1875 48.5703 61.1562 46.3438 65.1172C44.1172 69.0781 40.9766 72.0547 36.9219 74.0469C32.8906 76.0156 28.1445 77 22.6836 77H6.05469V25.6016H23.8438C29.375 25.6016 34.0625 26.5508 37.9062 28.4492C41.75 30.3477 44.668 33.125 46.6602 36.7812C48.6758 40.4375 49.6836 44.9141 49.6836 50.2109ZM35.2695 50.7031C35.2695 47.5859 34.8477 45.0078 34.0039 42.9688C33.1836 40.9062 31.9414 39.3711 30.2773 38.3633C28.6133 37.332 26.5156 36.8164 23.9844 36.8164H19.9414V65.6094H23.0352C27.2539 65.6094 30.3477 64.3906 32.3164 61.9531C34.2852 59.4922 35.2695 55.7422 35.2695 50.7031ZM96.1602 56.9961C96.1602 60.3242 95.7031 63.2773 94.7891 65.8555C93.875 68.4336 92.5508 70.6016 90.8164 72.3594C89.082 74.1172 86.9844 75.4531 84.5234 76.3672C82.0625 77.2578 79.2852 77.7031 76.1914 77.7031C73.3086 77.7031 70.6602 77.2578 68.2461 76.3672C65.8555 75.4531 63.7695 74.1172 61.9883 72.3594C60.207 70.6016 58.8242 68.4336 57.8398 65.8555C56.8789 63.2773 56.3984 60.3242 56.3984 56.9961C56.3984 52.5898 57.1953 48.8633 58.7891 45.8164C60.4062 42.7695 62.7031 40.4492 65.6797 38.8555C68.6797 37.2617 72.2539 36.4648 76.4023 36.4648C80.2227 36.4648 83.6211 37.2617 86.5977 38.8555C89.5742 40.4492 91.9062 42.7695 93.5938 45.8164C95.3047 48.8633 96.1602 52.5898 96.1602 56.9961ZM70.3555 56.9961C70.3555 59.2695 70.5547 61.1914 70.9531 62.7617C71.3516 64.3086 71.9844 65.4922 72.8516 66.3125C73.7422 67.1094 74.9023 67.5078 76.332 67.5078C77.7617 67.5078 78.8984 67.1094 79.7422 66.3125C80.5859 65.4922 81.1953 64.3086 81.5703 62.7617C81.9688 61.1914 82.168 59.2695 82.168 56.9961C82.168 54.7227 81.9688 52.8242 81.5703 51.3008C81.1953 49.7773 80.5742 48.6289 79.707 47.8555C78.8633 47.082 77.7148 46.6953 76.2617 46.6953C74.1758 46.6953 72.6641 47.5625 71.7266 49.2969C70.8125 51.0312 70.3555 53.5977 70.3555 56.9961ZM147.664 36.4648C151.766 36.4648 155.117 37.625 157.719 39.9453C160.32 42.2656 161.621 45.9805 161.621 51.0898V77H147.875V55.2734C147.875 52.625 147.488 50.6328 146.715 49.2969C145.965 47.9375 144.746 47.2578 143.059 47.2578C140.457 47.2578 138.711 48.3242 137.82 50.457C136.93 52.5664 136.484 55.6016 136.484 59.5625V77H122.738V37.168H133.109L134.973 42.4414H135.5C136.344 41.1758 137.352 40.0977 138.523 39.207C139.695 38.3164 141.043 37.6367 142.566 37.168C144.09 36.6992 145.789 36.4648 147.664 36.4648ZM236.398 66.8398C237.641 66.8398 238.777 66.7109 239.809 66.4531C240.84 66.1953 241.918 65.8672 243.043 65.4688V75.4883C241.543 76.1445 239.949 76.6719 238.262 77.0703C236.598 77.4922 234.465 77.7031 231.863 77.7031C229.285 77.7031 227.012 77.3047 225.043 76.5078C223.074 75.6875 221.539 74.2812 220.438 72.2891C219.359 70.2734 218.82 67.4727 218.82 63.8867V47.4688H214.004V41.8789L220.121 37.5547L223.672 29.1875H232.672V37.168H242.445V47.4688H232.672V62.9727C232.672 64.2617 233 65.2344 233.656 65.8906C234.312 66.5234 235.227 66.8398 236.398 66.8398ZM313.145 50.2109C313.145 56.1875 312.031 61.1562 309.805 65.1172C307.578 69.0781 304.438 72.0547 300.383 74.0469C296.352 76.0156 291.605 77 286.145 77H269.516V25.6016H287.305C292.836 25.6016 297.523 26.5508 301.367 28.4492C305.211 30.3477 308.129 33.125 310.121 36.7812C312.137 40.4375 313.145 44.9141 313.145 50.2109ZM298.73 50.7031C298.73 47.5859 298.309 45.0078 297.465 42.9688C296.645 40.9062 295.402 39.3711 293.738 38.3633C292.074 37.332 289.977 36.8164 287.445 36.8164H283.402V65.6094H286.496C290.715 65.6094 293.809 64.3906 295.777 61.9531C297.746 59.4922 298.73 55.7422 298.73 50.7031ZM339.512 36.4648C343.379 36.4648 346.719 37.1445 349.531 38.5039C352.344 39.8398 354.512 41.8555 356.035 44.5508C357.559 47.2461 358.32 50.6211 358.32 54.6758V60.793H333.746C333.863 62.8789 334.637 64.5898 336.066 65.9258C337.52 67.2617 339.652 67.9297 342.465 67.9297C344.949 67.9297 347.223 67.6836 349.285 67.1914C351.371 66.6992 353.516 65.9375 355.719 64.9062V74.7852C353.797 75.793 351.699 76.5312 349.426 77C347.152 77.4688 344.281 77.7031 340.812 77.7031C336.805 77.7031 333.219 76.9883 330.055 75.5586C326.891 74.1289 324.395 71.9141 322.566 68.9141C320.762 65.9141 319.859 62.0586 319.859 57.3477C319.859 52.5664 320.68 48.6406 322.32 45.5703C323.961 42.4766 326.258 40.1914 329.211 38.7148C332.164 37.2148 335.598 36.4648 339.512 36.4648ZM340.004 45.8164C338.387 45.8164 337.027 46.332 335.926 47.3633C334.848 48.3711 334.215 49.9648 334.027 52.1445H345.84C345.816 50.9727 345.582 49.9062 345.137 48.9453C344.691 47.9844 344.035 47.2227 343.168 46.6602C342.324 46.0977 341.27 45.8164 340.004 45.8164ZM385.531 36.4648C390.57 36.4648 394.508 37.7188 397.344 40.2266C400.18 42.7109 401.598 46.2617 401.598 50.8789V77H392.07L389.434 71.7266H389.152C388.027 73.1328 386.867 74.2812 385.672 75.1719C384.5 76.0391 383.152 76.6719 381.629 77.0703C380.105 77.4922 378.242 77.7031 376.039 77.7031C373.742 77.7031 371.68 77.2344 369.852 76.2969C368.023 75.3594 366.582 73.9414 365.527 72.043C364.473 70.1445 363.945 67.7422 363.945 64.8359C363.945 60.5703 365.422 57.4062 368.375 55.3438C371.328 53.2812 375.605 52.1211 381.207 51.8633L387.852 51.6523V51.0898C387.852 49.3086 387.406 48.043 386.516 47.293C385.648 46.543 384.477 46.168 383 46.168C381.43 46.168 379.672 46.4492 377.727 47.0117C375.805 47.5508 373.871 48.2539 371.926 49.1211L367.953 40.0508C370.25 38.8789 372.852 37.9883 375.758 37.3789C378.664 36.7695 381.922 36.4648 385.531 36.4648ZM387.922 59.2109L384.758 59.3516C382.227 59.4453 380.445 59.8906 379.414 60.6875C378.406 61.4609 377.902 62.5742 377.902 64.0273C377.902 65.3867 378.266 66.3945 378.992 67.0508C379.719 67.6836 380.68 68 381.875 68C383.539 68 384.957 67.4727 386.129 66.418C387.324 65.3633 387.922 63.9922 387.922 62.3047V59.2109ZM424.695 77H410.949V22.2969H424.695V77Z" fill="#18191F"/>
<path fill-rule="evenodd" clip-rule="evenodd" d="M196.68 67.8393C194.622 69.2046 192.154 70 189.5 70C182.32 70 176.5 64.1797 176.5 57C176.5 54.3459 177.295 51.8776 178.661 49.8204L196.68 67.8393ZM200.723 63.5641L182.936 45.7765C184.862 44.6473 187.106 44 189.5 44C196.68 44 202.5 49.8203 202.5 57C202.5 59.3944 201.853 61.6376 200.723 63.5641ZM209.5 57C209.5 68.0457 200.546 77 189.5 77C178.454 77 169.5 68.0457 169.5 57C169.5 45.9543 178.454 37 189.5 37C200.546 37 209.5 45.9543 209.5 57Z" fill="#FF0000"/>
</svg>
