<svg width="140" height="26" viewBox="0 0 140 26" fill="none" xmlns="http://www.w3.org/2000/svg">
<path d="M5.84442 0.2692V25.29H0.825915V0.2692H5.84442ZM19.7285 0.2692C22.3572 0.2692 24.6634 0.782999 26.6469 1.8106C28.6543 2.8382 30.1957 4.3079 31.2711 6.21971C32.3703 8.10763 32.92 10.3062 32.92 12.8155C32.92 15.3247 32.3703 17.5233 31.2711 19.4112C30.1957 21.2752 28.6543 22.721 26.6469 23.7486C24.6634 24.7762 22.3572 25.29 19.7285 25.29H10.9819V0.2692H19.7285ZM19.5493 21.0243C22.178 21.0243 24.2093 20.3074 25.6432 18.8735C27.077 17.4397 27.7939 15.4203 27.7939 12.8155C27.7939 10.2106 27.077 8.17932 25.6432 6.72157C24.2093 5.23991 22.178 4.49908 19.5493 4.49908H16.0005V21.0243H19.5493ZM41.8743 4.31985V10.593H50.2983V14.5719H41.8743V21.2035H51.3736V25.29H36.8558V0.233352H51.3736V4.31985H41.8743ZM77.5138 25.29H72.4953L61.132 8.11958V25.29H56.1135V0.233352H61.132L72.4953 17.4397V0.233352H77.5138V25.29ZM99.6796 0.2692V4.31985H93.0121V25.29H87.9936V4.31985H81.3262V0.2692H99.6796ZM120.548 0.2692V4.31985H113.88V25.29H108.862V4.31985H102.194V0.2692H120.548ZM129.407 0.2692V25.29H124.388V0.2692H129.407ZM139.563 0.2692V25.29H134.544V0.2692H139.563Z" fill="white"/>
</svg>
