<svg width="23" height="23" viewBox="0 0 23 23" fill="none" xmlns="http://www.w3.org/2000/svg">
<path d="M11.5522 0.5C8.56712 0.5 8.19175 0.51375 7.01887 0.566C5.846 0.621 5.04712 0.80525 4.34725 1.0775C3.61313 1.35363 2.94817 1.78676 2.39887 2.34663C1.83935 2.89621 1.40627 3.56108 1.12975 4.295C0.857496 4.9935 0.671871 5.79375 0.618246 6.9625C0.565996 8.13812 0.552246 8.51213 0.552246 11.5014C0.552246 14.4879 0.565996 14.8619 0.618246 16.0347C0.673246 17.2063 0.857496 18.0051 1.12975 18.705C1.41162 19.4282 1.787 20.0415 2.39887 20.6534C3.00937 21.2652 3.62262 21.642 4.34587 21.9225C5.04712 22.1947 5.84462 22.3804 7.01612 22.434C8.19037 22.4862 8.56437 22.5 11.5522 22.5C14.5401 22.5 14.9127 22.4862 16.087 22.434C17.2571 22.379 18.0587 22.1947 18.7586 21.9225C19.4923 21.6462 20.1567 21.2131 20.7056 20.6534C21.3175 20.0415 21.6929 19.4282 21.9747 18.705C22.2456 18.0051 22.4312 17.2063 22.4862 16.0347C22.5385 14.8619 22.5522 14.4879 22.5522 11.5C22.5522 8.51213 22.5385 8.13813 22.4862 6.96388C22.4312 5.79375 22.2456 4.9935 21.9747 4.295C21.6983 3.56106 21.2652 2.89618 20.7056 2.34663C20.1565 1.78655 19.4915 1.35339 18.7572 1.0775C18.056 0.80525 17.2557 0.619625 16.0856 0.566C14.9114 0.51375 14.5387 0.5 11.5495 0.5H11.5536H11.5522ZM10.5664 2.48275H11.5536C14.4906 2.48275 14.8385 2.49238 15.9976 2.546C17.0701 2.59413 17.6531 2.77425 18.0409 2.92412C18.5537 3.1235 18.9209 3.36275 19.3059 3.74775C19.6909 4.13275 19.9287 4.4985 20.1281 5.01275C20.2794 5.39913 20.4581 5.98213 20.5062 7.05463C20.5599 8.21375 20.5709 8.56163 20.5709 11.4973C20.5709 14.4329 20.5599 14.7821 20.5062 15.9412C20.4581 17.0138 20.278 17.5954 20.1281 17.9831C19.9518 18.4607 19.6703 18.8926 19.3045 19.2467C18.9195 19.6318 18.5537 19.8696 18.0395 20.069C17.6545 20.2203 17.0715 20.399 15.9976 20.4485C14.8385 20.5007 14.4906 20.5131 11.5536 20.5131C8.61662 20.5131 8.26737 20.5007 7.10825 20.4485C6.03575 20.399 5.45412 20.2203 5.06637 20.069C4.58856 19.8929 4.15629 19.6119 3.80137 19.2467C3.43528 18.892 3.15337 18.4598 2.97637 17.9818C2.8265 17.5954 2.64637 17.0124 2.59825 15.9399C2.546 14.7808 2.535 14.4329 2.535 11.4945C2.535 8.5575 2.546 8.211 2.59825 7.05187C2.64775 5.97937 2.8265 5.39638 2.97775 5.00863C3.17712 4.49575 3.41637 4.12862 3.80137 3.74362C4.18637 3.35862 4.55212 3.12075 5.06637 2.92138C5.45412 2.77013 6.03575 2.59138 7.10825 2.54188C8.123 2.49513 8.51625 2.48138 10.5664 2.48V2.48275ZM17.4249 4.30875C17.2515 4.30875 17.0799 4.34289 16.9197 4.40923C16.7596 4.47557 16.6141 4.5728 16.4915 4.69537C16.3689 4.81794 16.2717 4.96346 16.2053 5.12361C16.139 5.28376 16.1049 5.45541 16.1049 5.62875C16.1049 5.80209 16.139 5.97374 16.2053 6.13389C16.2717 6.29404 16.3689 6.43956 16.4915 6.56213C16.6141 6.6847 16.7596 6.78193 16.9197 6.84827C17.0799 6.91461 17.2515 6.94875 17.4249 6.94875C17.775 6.94875 18.1107 6.80968 18.3583 6.56213C18.6058 6.31458 18.7449 5.97884 18.7449 5.62875C18.7449 5.27866 18.6058 4.94292 18.3583 4.69537C18.1107 4.44782 17.775 4.30875 17.4249 4.30875ZM11.5536 5.8515C10.8043 5.83981 10.0602 5.97729 9.36459 6.25594C8.66896 6.5346 8.0357 6.94885 7.5017 7.47458C6.9677 8.00032 6.54362 8.62703 6.25415 9.31823C5.96468 10.0094 5.81561 10.7513 5.81561 11.5007C5.81561 12.2501 5.96468 12.9919 6.25415 13.6831C6.54362 14.3743 6.9677 15.0011 7.5017 15.5268C8.0357 16.0525 8.66896 16.4668 9.36459 16.7454C10.0602 17.0241 10.8043 17.1616 11.5536 17.1499C13.0366 17.1267 14.451 16.5214 15.4916 15.4645C16.5321 14.4076 17.1154 12.9839 17.1154 11.5007C17.1154 10.0175 16.5321 8.59382 15.4916 7.53691C14.451 6.47999 13.0366 5.87464 11.5536 5.8515ZM11.5536 7.83288C12.5262 7.83288 13.459 8.21923 14.1467 8.90695C14.8344 9.59467 15.2207 10.5274 15.2207 11.5C15.2207 12.4726 14.8344 13.4053 14.1467 14.093C13.459 14.7808 12.5262 15.1671 11.5536 15.1671C10.581 15.1671 9.64829 14.7808 8.96057 14.093C8.27285 13.4053 7.8865 12.4726 7.8865 11.5C7.8865 10.5274 8.27285 9.59467 8.96057 8.90695C9.64829 8.21923 10.581 7.83288 11.5536 7.83288Z" fill="#F2F2F2"/>
</svg>
