<svg width="192" height="43" viewBox="0 0 192 43" fill="none" xmlns="http://www.w3.org/2000/svg">
<rect y="17.5674" width="7.86566" height="24.985" rx="1.85074" fill="#23A6F0"/>
<rect x="11.2585" y="2.45312" width="7.86566" height="40.0995" rx="1.85074" fill="#23A6F0"/>
<rect x="22.5173" y="0.448242" width="7.86566" height="42.1044" rx="1.85074" fill="#23A6F0"/>
<rect x="33.7759" y="2.91602" width="7.86566" height="39.6368" rx="1.85074" fill="#23A6F0"/>
<path d="M54.8444 9.2692V34.29H49.8259V9.2692H54.8444ZM68.7285 9.2692C71.3572 9.2692 73.6634 9.783 75.6469 10.8106C77.6543 11.8382 79.1957 13.3079 80.2711 15.2197C81.3703 17.1076 81.92 19.3062 81.92 21.8155C81.92 24.3247 81.3703 26.5233 80.2711 28.4112C79.1957 30.2752 77.6543 31.721 75.6469 32.7486C73.6634 33.7762 71.3572 34.29 68.7285 34.29H59.9819V9.2692H68.7285ZM68.5493 30.0243C71.178 30.0243 73.2093 29.3074 74.6432 27.8735C76.077 26.4397 76.7939 24.4203 76.7939 21.8155C76.7939 19.2106 76.077 17.1793 74.6432 15.7216C73.2093 14.2399 71.178 13.4991 68.5493 13.4991H65.0005V30.0243H68.5493ZM90.8743 13.3199V19.593H99.2983V23.5719H90.8743V30.2035H100.374V34.29H85.8558V9.23335H100.374V13.3199H90.8743ZM126.514 34.29H121.495L110.132 17.1196V34.29H105.114V9.23335H110.132L121.495 26.4397V9.23335H126.514V34.29ZM148.68 9.2692V13.3199H142.012V34.29H136.994V13.3199H130.326V9.2692H148.68ZM169.548 9.2692V13.3199H162.88V34.29H157.862V13.3199H151.194V9.2692H169.548ZM178.407 9.2692V34.29H173.388V9.2692H178.407ZM188.563 9.2692V34.29H183.544V9.2692H188.563Z" fill="white"/>
</svg>
