<svg width="24" height="25" viewBox="0 0 24 25" fill="none" xmlns="http://www.w3.org/2000/svg">
<path fill-rule="evenodd" clip-rule="evenodd" d="M17.0483 10.3026C17.0483 14.0677 14.0072 17.1051 10.2742 17.1051C6.5411 17.1051 3.5 14.0677 3.5 10.3026C3.5 6.5374 6.5411 3.5 10.2742 3.5C14.0072 3.5 17.0483 6.5374 17.0483 10.3026ZM15.5139 18.579C13.9996 19.5453 12.202 20.1051 10.2742 20.1051C4.87604 20.1051 0.5 15.7164 0.5 10.3026C0.5 4.88876 4.87604 0.5 10.2742 0.5C15.6723 0.5 20.0483 4.88876 20.0483 10.3026C20.0483 12.6971 19.1922 14.8912 17.7702 16.5936L22.9274 21.7867C23.5111 22.3745 23.5111 23.3276 22.9274 23.9154C22.3436 24.5032 21.3972 24.5032 20.8134 23.9154L15.5139 18.579Z" fill="#252525"/>
</svg>
